<mxfile host="app.diagrams.net" agent="Mozilla/5.0 (Windows NT 10.0; Win64; x64) AppleWebKit/537.36 (KHTML, like Gecko) Chrome/140.0.0.0 Safari/537.36" version="28.2.3">
  <diagram name="Page-1" id="yErN5v8po-oCLoNZsI77">
    <mxGraphModel dx="1426" dy="777" grid="1" gridSize="10" guides="1" tooltips="1" connect="1" arrows="1" fold="1" page="1" pageScale="1" pageWidth="827" pageHeight="1169" math="0" shadow="0">
      <root>
        <mxCell id="0" />
        <mxCell id="1" parent="0" />
        <mxCell id="i_ZI4BL8TgBDiFZIhyjH-7" value="" style="edgeStyle=orthogonalEdgeStyle;rounded=0;orthogonalLoop=1;jettySize=auto;html=1;entryX=0.5;entryY=0;entryDx=0;entryDy=0;" edge="1" parent="1" source="i_ZI4BL8TgBDiFZIhyjH-1" target="i_ZI4BL8TgBDiFZIhyjH-5">
          <mxGeometry relative="1" as="geometry">
            <mxPoint x="390" y="190" as="targetPoint" />
          </mxGeometry>
        </mxCell>
        <mxCell id="i_ZI4BL8TgBDiFZIhyjH-1" value="Start" style="ellipse;whiteSpace=wrap;html=1;" vertex="1" parent="1">
          <mxGeometry x="330" y="100" width="120" height="80" as="geometry" />
        </mxCell>
        <mxCell id="i_ZI4BL8TgBDiFZIhyjH-2" value="End" style="ellipse;whiteSpace=wrap;html=1;" vertex="1" parent="1">
          <mxGeometry x="330" y="870" width="120" height="80" as="geometry" />
        </mxCell>
        <mxCell id="i_ZI4BL8TgBDiFZIhyjH-34" style="edgeStyle=orthogonalEdgeStyle;rounded=0;orthogonalLoop=1;jettySize=auto;html=1;entryX=0.5;entryY=0;entryDx=0;entryDy=0;" edge="1" parent="1" source="i_ZI4BL8TgBDiFZIhyjH-3" target="i_ZI4BL8TgBDiFZIhyjH-14">
          <mxGeometry relative="1" as="geometry" />
        </mxCell>
        <mxCell id="i_ZI4BL8TgBDiFZIhyjH-3" value="เปรียบเทียบตัวอักษรจากทั" style="rounded=0;whiteSpace=wrap;html=1;" vertex="1" parent="1">
          <mxGeometry x="330" y="280" width="120" height="70" as="geometry" />
        </mxCell>
        <mxCell id="i_ZI4BL8TgBDiFZIhyjH-10" value="" style="edgeStyle=orthogonalEdgeStyle;rounded=0;orthogonalLoop=1;jettySize=auto;html=1;" edge="1" parent="1" source="i_ZI4BL8TgBDiFZIhyjH-5" target="i_ZI4BL8TgBDiFZIhyjH-3">
          <mxGeometry relative="1" as="geometry" />
        </mxCell>
        <mxCell id="i_ZI4BL8TgBDiFZIhyjH-5" value="ป้อนตัวอักษระ&amp;nbsp;" style="shape=parallelogram;perimeter=parallelogramPerimeter;whiteSpace=wrap;html=1;fixedSize=1;" vertex="1" parent="1">
          <mxGeometry x="330" y="200" width="120" height="60" as="geometry" />
        </mxCell>
        <mxCell id="i_ZI4BL8TgBDiFZIhyjH-19" style="edgeStyle=orthogonalEdgeStyle;rounded=0;orthogonalLoop=1;jettySize=auto;html=1;entryX=0.5;entryY=0;entryDx=0;entryDy=0;" edge="1" parent="1" source="i_ZI4BL8TgBDiFZIhyjH-6" target="i_ZI4BL8TgBDiFZIhyjH-31">
          <mxGeometry relative="1" as="geometry">
            <Array as="points">
              <mxPoint x="530" y="615" />
            </Array>
          </mxGeometry>
        </mxCell>
        <mxCell id="i_ZI4BL8TgBDiFZIhyjH-28" value="" style="edgeStyle=orthogonalEdgeStyle;rounded=0;orthogonalLoop=1;jettySize=auto;html=1;" edge="1" parent="1" source="i_ZI4BL8TgBDiFZIhyjH-6" target="i_ZI4BL8TgBDiFZIhyjH-22">
          <mxGeometry relative="1" as="geometry">
            <Array as="points">
              <mxPoint x="245" y="615" />
            </Array>
          </mxGeometry>
        </mxCell>
        <mxCell id="i_ZI4BL8TgBDiFZIhyjH-6" value="ถ้าวลีที่สามารถอ่านจากหลังไปหน้าหรือหน้าไปหลังได้หรือไม่" style="rhombus;whiteSpace=wrap;html=1;" vertex="1" parent="1">
          <mxGeometry x="310" y="560" width="160" height="110" as="geometry" />
        </mxCell>
        <mxCell id="i_ZI4BL8TgBDiFZIhyjH-21" value="" style="edgeStyle=orthogonalEdgeStyle;rounded=0;orthogonalLoop=1;jettySize=auto;html=1;" edge="1" parent="1" source="i_ZI4BL8TgBDiFZIhyjH-14" target="i_ZI4BL8TgBDiFZIhyjH-15">
          <mxGeometry relative="1" as="geometry" />
        </mxCell>
        <mxCell id="i_ZI4BL8TgBDiFZIhyjH-14" value="เปรียบเทียบตัวอักษรโดยไม่สนใจตัวพิมพ์เล็ก-ใหญ่" style="rounded=0;whiteSpace=wrap;html=1;" vertex="1" parent="1">
          <mxGeometry x="310" y="380" width="160" height="70" as="geometry" />
        </mxCell>
        <mxCell id="i_ZI4BL8TgBDiFZIhyjH-33" value="" style="edgeStyle=orthogonalEdgeStyle;rounded=0;orthogonalLoop=1;jettySize=auto;html=1;" edge="1" parent="1" source="i_ZI4BL8TgBDiFZIhyjH-15" target="i_ZI4BL8TgBDiFZIhyjH-6">
          <mxGeometry relative="1" as="geometry" />
        </mxCell>
        <mxCell id="i_ZI4BL8TgBDiFZIhyjH-15" value="แสดงผล" style="rounded=0;whiteSpace=wrap;html=1;" vertex="1" parent="1">
          <mxGeometry x="330" y="470" width="120" height="60" as="geometry" />
        </mxCell>
        <mxCell id="i_ZI4BL8TgBDiFZIhyjH-25" value="" style="edgeStyle=orthogonalEdgeStyle;rounded=0;orthogonalLoop=1;jettySize=auto;html=1;" edge="1" parent="1" source="i_ZI4BL8TgBDiFZIhyjH-29" target="i_ZI4BL8TgBDiFZIhyjH-2">
          <mxGeometry relative="1" as="geometry">
            <Array as="points">
              <mxPoint x="390" y="810" />
              <mxPoint x="390" y="810" />
            </Array>
          </mxGeometry>
        </mxCell>
        <mxCell id="i_ZI4BL8TgBDiFZIhyjH-22" value="Pass" style="rounded=0;whiteSpace=wrap;html=1;" vertex="1" parent="1">
          <mxGeometry x="180" y="680" width="130" height="60" as="geometry" />
        </mxCell>
        <mxCell id="i_ZI4BL8TgBDiFZIhyjH-30" value="" style="edgeStyle=orthogonalEdgeStyle;rounded=0;orthogonalLoop=1;jettySize=auto;html=1;" edge="1" parent="1" source="i_ZI4BL8TgBDiFZIhyjH-22" target="i_ZI4BL8TgBDiFZIhyjH-29">
          <mxGeometry relative="1" as="geometry">
            <mxPoint x="245" y="740" as="sourcePoint" />
            <mxPoint x="390" y="890" as="targetPoint" />
            <Array as="points">
              <mxPoint x="245" y="780" />
            </Array>
          </mxGeometry>
        </mxCell>
        <mxCell id="i_ZI4BL8TgBDiFZIhyjH-29" value="" style="ellipse;whiteSpace=wrap;html=1;aspect=fixed;" vertex="1" parent="1">
          <mxGeometry x="375" y="760" width="30" height="30" as="geometry" />
        </mxCell>
        <mxCell id="i_ZI4BL8TgBDiFZIhyjH-32" style="edgeStyle=orthogonalEdgeStyle;rounded=0;orthogonalLoop=1;jettySize=auto;html=1;entryX=1;entryY=0.5;entryDx=0;entryDy=0;" edge="1" parent="1" source="i_ZI4BL8TgBDiFZIhyjH-31" target="i_ZI4BL8TgBDiFZIhyjH-29">
          <mxGeometry relative="1" as="geometry">
            <Array as="points">
              <mxPoint x="530" y="780" />
              <mxPoint x="405" y="780" />
            </Array>
          </mxGeometry>
        </mxCell>
        <mxCell id="i_ZI4BL8TgBDiFZIhyjH-31" value="Not Pass" style="rounded=0;whiteSpace=wrap;html=1;" vertex="1" parent="1">
          <mxGeometry x="470" y="680" width="120" height="60" as="geometry" />
        </mxCell>
      </root>
    </mxGraphModel>
  </diagram>
</mxfile>
